<mxfile host="app.diagrams.net" agent="Mozilla/5.0 (Windows NT 10.0; Win64; x64) AppleWebKit/537.36 (KHTML, like Gecko) Chrome/134.0.0.0 Safari/537.36" version="26.2.4">
  <diagram name="Page-1" id="pRdg2R33LH49ETcJ7exT">
    <mxGraphModel dx="985" dy="499" grid="0" gridSize="10" guides="1" tooltips="1" connect="1" arrows="1" fold="1" page="1" pageScale="1" pageWidth="827" pageHeight="1169" math="0" shadow="0">
      <root>
        <mxCell id="0" />
        <mxCell id="1" parent="0" />
        <mxCell id="AhtVeY3CleZHT6qBiIZ0-2" value="" style="endArrow=none;html=1;rounded=0;" edge="1" parent="1">
          <mxGeometry width="50" height="50" relative="1" as="geometry">
            <mxPoint x="120" y="640" as="sourcePoint" />
            <mxPoint x="460" y="640" as="targetPoint" />
          </mxGeometry>
        </mxCell>
        <mxCell id="AhtVeY3CleZHT6qBiIZ0-3" value="" style="endArrow=none;html=1;rounded=0;" edge="1" parent="1">
          <mxGeometry width="50" height="50" relative="1" as="geometry">
            <mxPoint x="330" y="640" as="sourcePoint" />
            <mxPoint x="330" y="490" as="targetPoint" />
          </mxGeometry>
        </mxCell>
        <mxCell id="AhtVeY3CleZHT6qBiIZ0-4" value="" style="endArrow=none;html=1;rounded=0;curved=1;" edge="1" parent="1">
          <mxGeometry width="50" height="50" relative="1" as="geometry">
            <mxPoint x="330" y="640" as="sourcePoint" />
            <mxPoint x="380" y="580" as="targetPoint" />
            <Array as="points">
              <mxPoint x="380" y="620" />
            </Array>
          </mxGeometry>
        </mxCell>
        <mxCell id="AhtVeY3CleZHT6qBiIZ0-5" value="" style="endArrow=none;html=1;rounded=0;" edge="1" parent="1">
          <mxGeometry width="50" height="50" relative="1" as="geometry">
            <mxPoint x="380" y="580" as="sourcePoint" />
            <mxPoint x="383" y="492" as="targetPoint" />
          </mxGeometry>
        </mxCell>
        <mxCell id="AhtVeY3CleZHT6qBiIZ0-6" value="" style="endArrow=classic;html=1;rounded=0;" edge="1" parent="1">
          <mxGeometry width="50" height="50" relative="1" as="geometry">
            <mxPoint x="90" y="614" as="sourcePoint" />
            <mxPoint x="128" y="614" as="targetPoint" />
          </mxGeometry>
        </mxCell>
        <mxCell id="AhtVeY3CleZHT6qBiIZ0-7" value="" style="endArrow=classic;html=1;rounded=0;" edge="1" parent="1">
          <mxGeometry width="50" height="50" relative="1" as="geometry">
            <mxPoint x="90" y="589" as="sourcePoint" />
            <mxPoint x="128" y="589" as="targetPoint" />
          </mxGeometry>
        </mxCell>
        <mxCell id="AhtVeY3CleZHT6qBiIZ0-8" value="" style="endArrow=classic;html=1;rounded=0;" edge="1" parent="1">
          <mxGeometry width="50" height="50" relative="1" as="geometry">
            <mxPoint x="90" y="564" as="sourcePoint" />
            <mxPoint x="128" y="564" as="targetPoint" />
          </mxGeometry>
        </mxCell>
        <mxCell id="AhtVeY3CleZHT6qBiIZ0-9" value="" style="endArrow=classic;html=1;rounded=0;" edge="1" parent="1">
          <mxGeometry width="50" height="50" relative="1" as="geometry">
            <mxPoint x="90" y="539" as="sourcePoint" />
            <mxPoint x="128" y="539" as="targetPoint" />
          </mxGeometry>
        </mxCell>
        <mxCell id="AhtVeY3CleZHT6qBiIZ0-10" value="" style="endArrow=classic;html=1;rounded=0;" edge="1" parent="1">
          <mxGeometry width="50" height="50" relative="1" as="geometry">
            <mxPoint x="90" y="514" as="sourcePoint" />
            <mxPoint x="128" y="514" as="targetPoint" />
          </mxGeometry>
        </mxCell>
        <mxCell id="AhtVeY3CleZHT6qBiIZ0-11" value="&lt;font style=&quot;font-size: 18px;&quot;&gt;V&lt;/font&gt;" style="text;html=1;align=center;verticalAlign=middle;whiteSpace=wrap;rounded=0;" vertex="1" parent="1">
          <mxGeometry x="75" y="480" width="60" height="30" as="geometry" />
        </mxCell>
        <mxCell id="AhtVeY3CleZHT6qBiIZ0-12" value="&lt;font style=&quot;font-size: 18px;&quot;&gt;V&lt;/font&gt;" style="text;html=1;align=center;verticalAlign=middle;whiteSpace=wrap;rounded=0;" vertex="1" parent="1">
          <mxGeometry x="408" y="480" width="60" height="30" as="geometry" />
        </mxCell>
        <mxCell id="AhtVeY3CleZHT6qBiIZ0-14" value="&lt;font style=&quot;font-size: 18px;&quot;&gt;Zero velocity at the surface&lt;/font&gt;" style="text;html=1;align=center;verticalAlign=middle;whiteSpace=wrap;rounded=0;" vertex="1" parent="1">
          <mxGeometry x="410" y="510" width="60" height="140" as="geometry" />
        </mxCell>
        <mxCell id="AhtVeY3CleZHT6qBiIZ0-15" value="&lt;font style=&quot;font-size: 18px;&quot;&gt;0.99 V&lt;/font&gt;" style="text;html=1;align=center;verticalAlign=middle;whiteSpace=wrap;rounded=0;" vertex="1" parent="1">
          <mxGeometry x="240.26" y="550" width="60" height="30" as="geometry" />
        </mxCell>
        <mxCell id="AhtVeY3CleZHT6qBiIZ0-16" value="&lt;span style=&quot;color: rgb(0, 29, 53); font-family: &amp;quot;Google Sans&amp;quot;, Arial, sans-serif; font-size: 18px; text-align: start;&quot;&gt;Î´&lt;/span&gt;" style="text;html=1;align=center;verticalAlign=middle;whiteSpace=wrap;rounded=0;" vertex="1" parent="1">
          <mxGeometry x="273" y="596" width="60" height="30" as="geometry" />
        </mxCell>
        <mxCell id="AhtVeY3CleZHT6qBiIZ0-17" value="" style="endArrow=classic;startArrow=classic;html=1;rounded=0;" edge="1" parent="1">
          <mxGeometry width="50" height="50" relative="1" as="geometry">
            <mxPoint x="317" y="640" as="sourcePoint" />
            <mxPoint x="317" y="583" as="targetPoint" />
          </mxGeometry>
        </mxCell>
        <mxCell id="AhtVeY3CleZHT6qBiIZ0-18" value="" style="endArrow=none;html=1;rounded=0;" edge="1" parent="1">
          <mxGeometry width="50" height="50" relative="1" as="geometry">
            <mxPoint x="307" y="583" as="sourcePoint" />
            <mxPoint x="327" y="583" as="targetPoint" />
          </mxGeometry>
        </mxCell>
        <mxCell id="AhtVeY3CleZHT6qBiIZ0-19" value="" style="endArrow=none;html=1;rounded=0;curved=1;" edge="1" parent="1">
          <mxGeometry width="50" height="50" relative="1" as="geometry">
            <mxPoint x="300.26" y="565" as="sourcePoint" />
            <mxPoint x="350" y="580" as="targetPoint" />
            <Array as="points">
              <mxPoint x="330.26" y="565" />
            </Array>
          </mxGeometry>
        </mxCell>
        <mxCell id="AhtVeY3CleZHT6qBiIZ0-20" value="" style="endArrow=classic;html=1;rounded=0;curved=1;" edge="1" parent="1">
          <mxGeometry width="50" height="50" relative="1" as="geometry">
            <mxPoint x="399" y="600" as="sourcePoint" />
            <mxPoint x="332" y="640" as="targetPoint" />
            <Array as="points">
              <mxPoint x="369" y="630" />
            </Array>
          </mxGeometry>
        </mxCell>
        <mxCell id="AhtVeY3CleZHT6qBiIZ0-22" value="&lt;font style=&quot;font-size: 18px;&quot;&gt;Relative velocities of fluid layers&lt;/font&gt;" style="text;html=1;align=center;verticalAlign=middle;whiteSpace=wrap;rounded=0;" vertex="1" parent="1">
          <mxGeometry x="310.26" y="403" width="99.74" height="80" as="geometry" />
        </mxCell>
        <mxCell id="AhtVeY3CleZHT6qBiIZ0-23" value="&lt;font style=&quot;font-size: 18px;&quot;&gt;u&lt;/font&gt;" style="text;html=1;align=center;verticalAlign=middle;whiteSpace=wrap;rounded=0;" vertex="1" parent="1">
          <mxGeometry x="321" y="527" width="60" height="30" as="geometry" />
        </mxCell>
        <mxCell id="AhtVeY3CleZHT6qBiIZ0-24" value="" style="endArrow=none;html=1;rounded=0;curved=1;" edge="1" parent="1">
          <mxGeometry width="50" height="50" relative="1" as="geometry">
            <mxPoint x="356" y="503" as="sourcePoint" />
            <mxPoint x="420" y="490" as="targetPoint" />
            <Array as="points">
              <mxPoint x="386" y="483" />
            </Array>
          </mxGeometry>
        </mxCell>
        <mxCell id="AhtVeY3CleZHT6qBiIZ0-25" value="" style="endArrow=classic;html=1;rounded=0;" edge="1" parent="1">
          <mxGeometry width="50" height="50" relative="1" as="geometry">
            <mxPoint x="330" y="503.72" as="sourcePoint" />
            <mxPoint x="380" y="504" as="targetPoint" />
          </mxGeometry>
        </mxCell>
        <mxCell id="AhtVeY3CleZHT6qBiIZ0-26" value="" style="endArrow=classic;html=1;rounded=0;" edge="1" parent="1">
          <mxGeometry width="50" height="50" relative="1" as="geometry">
            <mxPoint x="330" y="519.36" as="sourcePoint" />
            <mxPoint x="380" y="519.64" as="targetPoint" />
          </mxGeometry>
        </mxCell>
        <mxCell id="AhtVeY3CleZHT6qBiIZ0-27" value="" style="endArrow=classic;html=1;rounded=0;" edge="1" parent="1">
          <mxGeometry width="50" height="50" relative="1" as="geometry">
            <mxPoint x="330" y="535.36" as="sourcePoint" />
            <mxPoint x="380" y="535.64" as="targetPoint" />
          </mxGeometry>
        </mxCell>
        <mxCell id="AhtVeY3CleZHT6qBiIZ0-28" value="" style="endArrow=classic;html=1;rounded=0;" edge="1" parent="1">
          <mxGeometry width="50" height="50" relative="1" as="geometry">
            <mxPoint x="330" y="551.36" as="sourcePoint" />
            <mxPoint x="380" y="551.64" as="targetPoint" />
          </mxGeometry>
        </mxCell>
        <mxCell id="AhtVeY3CleZHT6qBiIZ0-29" value="" style="endArrow=classic;html=1;rounded=0;" edge="1" parent="1">
          <mxGeometry width="50" height="50" relative="1" as="geometry">
            <mxPoint x="329.63" y="566.93" as="sourcePoint" />
            <mxPoint x="378.37" y="566.93" as="targetPoint" />
          </mxGeometry>
        </mxCell>
        <mxCell id="AhtVeY3CleZHT6qBiIZ0-30" value="" style="endArrow=classic;html=1;rounded=0;" edge="1" parent="1">
          <mxGeometry width="50" height="50" relative="1" as="geometry">
            <mxPoint x="330" y="583" as="sourcePoint" />
            <mxPoint x="378" y="583" as="targetPoint" />
          </mxGeometry>
        </mxCell>
        <mxCell id="AhtVeY3CleZHT6qBiIZ0-31" value="" style="endArrow=classic;html=1;rounded=0;" edge="1" parent="1">
          <mxGeometry width="50" height="50" relative="1" as="geometry">
            <mxPoint x="330" y="600" as="sourcePoint" />
            <mxPoint x="375" y="600" as="targetPoint" />
          </mxGeometry>
        </mxCell>
        <mxCell id="AhtVeY3CleZHT6qBiIZ0-32" value="" style="endArrow=classic;html=1;rounded=0;" edge="1" parent="1">
          <mxGeometry width="50" height="50" relative="1" as="geometry">
            <mxPoint x="330" y="615" as="sourcePoint" />
            <mxPoint x="366" y="615" as="targetPoint" />
          </mxGeometry>
        </mxCell>
      </root>
    </mxGraphModel>
  </diagram>
</mxfile>
